<svg xmlns="http://www.w3.org/2000/svg" fill-rule="evenodd" stroke-linejoin="round" stroke-miterlimit="2" clip-rule="evenodd" viewBox="0 0 6000 6000"><path fill="#eee" fill-rule="nonzero" d="M1698.69 575.454c0-4.787 1.56-8.673 4.66-11.656 3.11-2.983 7.19-4.475 12.22-4.475 5.11 0 9.22 1.474 12.33 4.421 3.11 2.948 4.66 6.941 4.66 11.978v3.859c0 4.823-1.55 8.7-4.66 11.63-3.11 2.929-7.18 4.394-12.22 4.394-5.07 0-9.17-1.474-12.3-4.421-3.13-2.948-4.69-6.923-4.69-11.924v-3.806Zm10.29 4.127c0 2.144.62 3.868 1.85 5.172 1.23 1.304 2.85 1.956 4.85 1.956 2 0 3.59-.661 4.77-1.983 1.18-1.322 1.77-3.091 1.77-5.306v-3.966c0-2.143-.59-3.876-1.77-5.198-1.18-1.322-2.81-1.983-4.88-1.983-1.96 0-3.55.652-4.77 1.956-1.21 1.304-1.82 3.117-1.82 5.44v3.912Zm27.01 39.766c0-4.824 1.57-8.709 4.72-11.657 3.14-2.947 7.21-4.421 12.22-4.421 5.07 0 9.17 1.456 12.3 4.368 3.12 2.912 4.68 6.922 4.68 12.031v3.859c0 4.788-1.53 8.655-4.6 11.603-3.08 2.947-7.17 4.421-12.28 4.421-5.14 0-9.27-1.483-12.38-4.448-3.1-2.965-4.66-6.896-4.66-11.79v-3.966Zm10.29 4.18c0 1.965.64 3.644 1.93 5.038 1.29 1.393 2.89 2.09 4.82 2.09 4.36 0 6.54-2.412 6.54-7.235v-4.073c0-2.144-.61-3.868-1.82-5.172-1.21-1.304-2.82-1.956-4.82-1.956-2.01 0-3.61.652-4.83 1.956-1.21 1.304-1.82 3.082-1.82 5.333v4.019Zm-27.55 9.111-7.55-4.073 38.1-60.989 7.56 4.073-38.11 60.989Z" transform="matrix(12.646 0 0 15.23731 -17305.67 -6601.895)"/><path fill="#eee" d="M1303.33 1063.74c-6.39-4.44-12.2-8.27-16.71-14.61-3.37-4.74-6.07-10.12-7.53-15.77-12.48-48.197 53.35-56.276 71.56-89.147 6.6-11.918 9.01-26.148 9.27-39.651.25-13.259-.47-28.473 12.25-36.643 40.19-25.818 73.31 46.697 110.49 7.998 37.63-39.165 1.56-106.7 47.66-145.437 5.87-4.937 12.71-8.753 19.96-11.259 8.4-2.903 17.32-4.012 26.18-3.444 10.15.649 20.18 3.861 29.25 8.348 8.25 4.076 15.93 9.246 22.62 15.577 33.72 31.945 20.17 77.292 36.54 116.058 10.16 24.038 34.72 30.052 57.84 35.507 16.63 3.923 35.47 9.954 42.09 27.473 12.43 32.968-25.38 47.474-36.92 72.011-8.51 18.089 10.65 25.379 10.98 39.689.28 12.11-12.5 18.18-9.52 33.08l-426.01.22Z" transform="translate(-9731.19 -4248.3) scale(8.13672)"/><path fill="#eee" d="M1331.51 792.514c0-4.514-2.49-8.173-5.56-8.173h-11.19c-3.07 0-5.56 3.659-5.56 8.173v49.827c0 4.514 2.49 8.172 5.56 8.172h11.19c3.07 0 5.56-3.658 5.56-8.172v-49.827Z" transform="matrix(6.88285 0 0 4.67796 -8003.135 -1324.72)"/><path fill="#eee" d="M1331.51 790.406c0-1.608-.59-3.151-1.63-4.288-1.04-1.138-2.45-1.777-3.93-1.777h-11.19c-1.47 0-2.89.639-3.93 1.777-1.04 1.137-1.63 2.68-1.63 4.288v54.042c0 1.609.59 3.152 1.63 4.289 1.04 1.137 2.46 1.776 3.93 1.776h11.19c1.48 0 2.89-.639 3.93-1.776s1.63-2.68 1.63-4.289v-54.042Z" transform="matrix(6.88285 0 0 6.30352 -7800.439 -2707.28)"/><path fill="#eee" d="M1331.51 787.705c0-.892-.59-1.747-1.63-2.378s-2.45-.986-3.93-.986h-11.19c-1.47 0-2.89.355-3.93.986s-1.63 1.486-1.63 2.378v59.444c0 .893.59 1.748 1.63 2.379s2.46.985 3.93.985h11.19c1.48 0 2.89-.354 3.93-.985s1.63-1.486 1.63-2.379v-59.444Z" transform="matrix(6.88285 0 0 11.36473 -7597.734 -7011.924)"/><path fill="#eee" d="M1331.51 789.651c0-1.408-.59-2.759-1.63-3.754a5.677 5.677 0 0 0-3.93-1.556h-11.19c-1.47 0-2.89.56-3.93 1.556-1.04.995-1.63 2.346-1.63 3.754v55.552c0 1.409.59 2.759 1.63 3.755a5.694 5.694 0 0 0 3.93 1.555h11.19c1.48 0 2.89-.559 3.93-1.555 1.04-.996 1.63-2.346 1.63-3.755v-55.552Z" transform="matrix(6.88285 0 0 7.19975 -7395.029 -3469.541)"/><path fill="#eee" d="M1331.51 788.878c0-1.204-.59-2.357-1.63-3.208s-2.45-1.329-3.93-1.329h-11.19c-1.47 0-2.89.478-3.93 1.329s-1.63 2.004-1.63 3.208v57.099c0 1.203.59 2.357 1.63 3.208s2.46 1.328 3.93 1.328h11.19c1.48 0 2.89-.477 3.93-1.328 1.04-.851 1.63-2.005 1.63-3.208v-57.099Z" transform="matrix(6.88285 0 0 8.4279 -7192.324 -4514.096)"/><g transform="translate(-9731.19 -4248.3) scale(8.13672)"><path fill="#6993a4" d="M1575.54 1043.31h210.613v16.785H1575.54z" transform="matrix(.83525 0 0 .4644 92.875 572.997)"/><path fill="#6993a4" d="M1575.54 1043.31h210.613v16.785H1575.54z" transform="matrix(.83525 0 0 .4644 92.875 557.406)"/><path fill="#6993a4" d="M1575.54 1043.31h210.613v16.785H1575.54z" transform="matrix(.83525 0 0 .4644 92.875 541.817)"/><path fill="#6993a4" d="M1575.54 1043.31h210.613v16.785H1575.54z" transform="matrix(.83525 0 0 .4644 92.875 526.227)"/><path fill="#6993a4" d="M1575.54 1043.31h210.613v16.785H1575.54z" transform="matrix(.83525 0 0 .4644 92.875 510.637)"/><path fill="#6993a4" d="M1575.54 1043.31h210.613v16.785H1575.54z" transform="matrix(.83525 0 0 .4644 92.875 495.047)"/><path fill="#a6d2e4" d="M1575.54 1043.31h210.613v16.785H1575.54z" transform="matrix(.83525 0 0 .4644 92.875 565.202)"/><path fill="#a6d2e4" d="M1575.54 1043.31h210.613v16.785H1575.54z" transform="matrix(.83525 0 0 .4644 92.875 549.612)"/><path fill="#a6d2e4" d="M1575.54 1043.31h210.613v16.785H1575.54z" transform="matrix(.83525 0 0 .4644 92.875 534.022)"/><path fill="#a6d2e4" d="M1575.54 1043.31h210.613v16.785H1575.54z" transform="matrix(.83525 0 0 .4644 92.875 518.432)"/><path fill="#a6d2e4" d="M1575.54 1043.31h210.613v16.785H1575.54z" transform="matrix(.83525 0 0 .4644 92.875 502.842)"/><path fill="#a6d2e4" d="M1575.54 1043.31h210.613v16.785H1575.54z" transform="matrix(.83525 0 0 .4644 92.875 487.252)"/><path fill="#023341" d="M1575.54 1043.31h97.029v16.785h-97.029z" transform="matrix(.83525 0 0 .4644 268.789 572.997)"/><path fill="#023341" d="M1575.54 1043.31h97.029v16.785h-97.029z" transform="matrix(.83525 0 0 .4644 268.789 557.406)"/><path fill="#023341" d="M1575.54 1043.31h97.029v16.785h-97.029z" transform="matrix(.83525 0 0 .4644 268.789 541.817)"/><path fill="#023341" d="M1575.54 1043.31h97.029v16.785h-97.029z" transform="matrix(.83525 0 0 .4644 268.789 526.227)"/><path fill="#023341" d="M1575.54 1043.31h97.029v16.785h-97.029z" transform="matrix(.83525 0 0 .4644 268.789 510.637)"/><path fill="#023341" d="M1575.54 1043.31h97.029v16.785h-97.029z" transform="matrix(.83525 0 0 .4644 268.789 495.047)"/><path fill="#4b7686" d="M1575.54 1043.31h97.029v16.785h-97.029z" transform="matrix(.83525 0 0 .4644 268.789 565.202)"/><path fill="#4b7686" d="M1575.54 1043.31h97.029v16.785h-97.029z" transform="matrix(.83525 0 0 .4644 268.789 549.612)"/><path fill="#4b7686" d="M1575.54 1043.31h97.029v16.785h-97.029z" transform="matrix(.83525 0 0 .4644 268.789 534.022)"/><path fill="#4b7686" d="M1575.54 1043.31h97.029v16.785h-97.029z" transform="matrix(.83525 0 0 .4644 268.789 518.432)"/><path fill="#4b7686" d="M1575.54 1043.31h97.029v16.785h-97.029z" transform="matrix(.83525 0 0 .4644 268.789 502.842)"/><path fill="#4b7686" d="M1575.54 1043.31h97.029v16.785h-97.029z" transform="matrix(.83525 0 0 .4644 268.789 487.252)"/><g transform="matrix(-.40152 -.5494 .66206 -.48385 1556.35 1990.21)"><circle cx="1344.05" cy="940.929" r="18.237" fill="#fad8ba"/><clipPath id="a"><circle cx="1344.05" cy="940.929" r="18.237"/></clipPath><g clip-path="url(#a)"><path fill="#d7b699" d="M1655.67 790.479c-.55 2.404-1.49 4.59-2.79 6.69-.59.961-1.19 2.019-2.08 2.729-2.3 1.818-5.91 1.969-8.64 1.331-1.27-.296-2.43-.842-3.51-1.572-2.24-1.526-4.74-4.998-7.76-2.898-.46.319-.86.733-1.19 1.179a6.87 6.87 0 0 0-1.04 2.047 7.432 7.432 0 0 0-.37 2.29c-.05 6.452 7.52 9.452 12.92 9.506 5.67.057 15.3-4.597 17.79-11.144 1.12-2.95-4.28-7.867-3.33-10.158Z" transform="matrix(-.86708 .98458 -1.18646 -.71955 3710.79 -100.301)"/></g></g><path fill="#023341" d="M1810.13 818.477c0-5.419-9.48-17.359-15.8-17.359-19.44 0-54.33 7.546-73.77 7.546-6.32 0-11.44 4.394-11.44 9.813 0 21.484-7.11 67.608-7.11 89.092 0 5.419 12.23 14.677 18.55 14.677h78.13c6.32 0 11.44-4.394 11.44-9.813v-93.956Z" transform="matrix(.46603 -.0925 -.10747 .58616 943.557 415.029)"/><path fill="#6993a4" d="M1810.13 818.477c0-5.419-5.12-9.813-11.44-9.813h-78.13c-6.32 0-11.44 4.394-11.44 9.813v93.956c0 5.419 5.12 9.813 11.44 9.813h78.13c6.32 0 11.44-4.394 11.44-9.813v-93.956Z" transform="matrix(.46603 -.0925 -.10747 .58616 940.576 410.789)"/><path fill="#fff" d="M1810.13 849.207c0-22.391-5.43-40.543-12.14-40.543h-76.73c-6.7 0-12.14 18.152-12.14 40.543v32.497c0 22.39 5.44 40.542 12.14 40.542h76.73c6.71 0 12.14-18.152 12.14-40.542v-32.497Z" transform="matrix(.39005 -.07742 -.0231 .12604 1005.082 761.615)"/><path fill="#fff" d="M1734.96 862.572c0-2.915-2.9-5.278-6.47-5.278h-4.4c-3.57 0-6.47 2.363-6.47 5.278v6.786c0 2.914 2.9 5.277 6.47 5.277h4.4c3.57 0 6.47-2.363 6.47-5.277v-6.786Z" transform="matrix(.44296 -.08792 -.10747 .58616 980.367 400.354)"/><path fill="#fff" d="M1734.96 862.572c0-2.915-2.9-5.278-6.47-5.278h-4.4c-3.57 0-6.47 2.363-6.47 5.278v6.786c0 2.914 2.9 5.277 6.47 5.277h4.4c3.57 0 6.47-2.363 6.47-5.277v-6.786Z" transform="matrix(.44296 -.08792 -.10747 .58616 977.853 414.05)"/><path fill="#fff" d="M1734.96 862.572c0-2.915-2.9-5.278-6.47-5.278h-4.4c-3.57 0-6.47 2.363-6.47 5.278v6.786c0 2.914 2.9 5.277 6.47 5.277h4.4c3.57 0 6.47-2.363 6.47-5.277v-6.786Z" transform="matrix(.44296 -.08792 -.10747 .58616 975.347 427.748)"/><path fill="#fff" d="M1734.96 862.572c0-2.915-2.9-5.278-6.47-5.278h-4.4c-3.57 0-6.47 2.363-6.47 5.278v6.786c0 2.914 2.9 5.277 6.47 5.277h4.4c3.57 0 6.47-2.363 6.47-5.277v-6.786Z" transform="matrix(.44296 -.08792 -.10747 .58616 992.077 398.029)"/><path fill="#fff" d="M1734.96 862.572c0-2.915-2.9-5.278-6.47-5.278h-4.4c-3.57 0-6.47 2.363-6.47 5.278v6.786c0 2.914 2.9 5.277 6.47 5.277h4.4c3.57 0 6.47-2.363 6.47-5.277v-6.786Z" transform="matrix(.44296 -.08792 -.10747 .58616 989.563 411.726)"/><path fill="#fff" d="M1734.96 862.572c0-2.915-2.9-5.278-6.47-5.278h-4.4c-3.57 0-6.47 2.363-6.47 5.278v6.786c0 2.914 2.9 5.277 6.47 5.277h4.4c3.57 0 6.47-2.363 6.47-5.277v-6.786Z" transform="matrix(.44296 -.08792 -.10747 .58616 987.057 425.422)"/><path fill="#fff" d="M1734.96 862.572c0-2.915-2.9-5.278-6.47-5.278h-4.4c-3.57 0-6.47 2.363-6.47 5.278v6.786c0 2.914 2.9 5.277 6.47 5.277h4.4c3.57 0 6.47-2.363 6.47-5.277v-6.786Z" transform="matrix(.44296 -.08792 -.10747 .58616 1003.787 395.704)"/><path fill="#fff" d="M1734.96 862.572c0-2.915-2.9-5.278-6.47-5.278h-4.4c-3.57 0-6.47 2.363-6.47 5.278v6.786c0 2.914 2.9 5.277 6.47 5.277h4.4c3.57 0 6.47-2.363 6.47-5.277v-6.786Z" transform="matrix(.44296 -.08792 -.10747 .58616 1013.426 393.792)"/><path fill="#fff" d="M1734.96 862.572c0-2.915-2.9-5.278-6.47-5.278h-4.4c-3.57 0-6.47 2.363-6.47 5.278v6.786c0 2.914 2.9 5.277 6.47 5.277h4.4c3.57 0 6.47-2.363 6.47-5.277v-6.786Z" transform="matrix(.44296 -.08792 -.10747 .58616 1001.281 409.4)"/><path fill="#fff" d="M1734.96 862.572c0-2.915-2.9-5.278-6.47-5.278h-4.4c-3.57 0-6.47 2.363-6.47 5.278v6.786c0 2.914 2.9 5.277 6.47 5.277h4.4c3.57 0 6.47-2.363 6.47-5.277v-6.786Z" transform="matrix(.44296 -.08792 -.10747 .58616 998.767 423.098)"/><path fill="#fff" d="M1734.96 859.542c0-1.241-3.59-2.248-8.03-2.248h-1.28c-4.44 0-8.03 1.007-8.03 2.248v12.845c0 1.242 3.59 2.248 8.03 2.248h1.28c4.44 0 8.03-1.006 8.03-2.248v-12.845Z" transform="matrix(.35732 -.07092 -.25228 1.37603 1282.901 -299.007)"/><circle cx="1344.05" cy="940.929" r="18.237" fill="#fad8ba" transform="matrix(-.1793 -.24535 .58686 -.42888 1325.52 1520.56)"/><g transform="rotate(-140.02 1383.182 698.97) scale(.83525)"><path fill="#f25c05" d="M1461.15 763.464s-76.19 25.11-98.14 53.49c-21.94 28.381-33.52 116.793-33.52 116.793 10.11 9.754 21.42 10.341 34.36-1.61 0 0 27.13-64.756 40.64-81.287 9.33-11.414 25.49-9.255 40.44-17.898 15.03-8.689 16.22-69.488 16.22-69.488Z"/><clipPath id="b"><path d="M1461.15 763.464s-76.19 25.11-98.14 53.49c-21.94 28.381-33.52 116.793-33.52 116.793 10.11 9.754 21.42 10.341 34.36-1.61 0 0 27.13-64.756 40.64-81.287 9.33-11.414 25.49-9.255 40.44-17.898 15.03-8.689 16.22-69.488 16.22-69.488Z"/></clipPath><g clip-path="url(#b)"><path fill="#023341" d="M1318.48 920.255c2.71.728 9.1-6.567 11.01-4.454 9.64 10.665 19.98 9.671 28.67 8.5 4.17-.562 9.15-4.327 12.94-6.149 1.22-.589 2.43-1.221 3.58-1.946.13-.084 1.51-1.148 1.6-1.057.42.434-.86 3.975-.98 4.494-.35 1.461-.43 3.493-1.25 4.772-1.99 3.117-1.52-1.194-6.31 2.938-16.96 14.654-39.35 7.679-49.26-7.098Z"/><path fill="#d23f00" d="M1635.25 824.784c-5.13 5.632-13.44 9.357-20.11 12.667-18.3 9.078-39.35 14.813-59.9 14.588-8.99-.098-17.43-2.011-25.8-5.234-3.45-1.33-7.99-3.857-11.28-.711-3.28 3.146-2.9 8.762-2.44 12.853 1.65 14.721 12.13 22.024 26.54 22.239 28.94.432 72.47-37.291 92.99-56.402Z" transform="matrix(-.83426 .85874 -.6983 -.6784 3267.03 64.378)"/></g></g><g transform="translate(259.89 175.848) scale(.83525)"><path fill="#f25c05" d="M1511.03 768c-8.15-7.432-55.57-10.479-66.49 9.039-13.95 24.923-17.19 140.496-17.19 140.496l114.81-55.459s-15.19-79.538-31.13-94.076Z"/><clipPath id="c"><path d="M1511.03 768c-8.15-7.432-55.57-10.479-66.49 9.039-13.95 24.923-17.19 140.496-17.19 140.496l114.81-55.459s-15.19-79.538-31.13-94.076Z"/></clipPath><g clip-path="url(#c)"><path fill="#d23f00" d="M1439.16 894.454c5 .858 23.89-33.405 23.89-33.405s5.95 11.466 4.23 27.742c-.38 3.597 1.09 7.998 5.07 9.056 5.47 1.453 11.26-2.116 15.83-4.628 6.89-3.779 14.02-7.393 21.84-8.734 5.59-.957 14.84-1.359 14.47 6.625-.42 9.092-9.14 16.789-15.71 21.922-13.46 10.505-29.86 18.379-45.13 25.908-5.17 2.55-12.71 6.969-18.71 4.808-9.12-3.287-9.57-18.929-9.34-26.636.22-7.662 1.67-15.251 3.56-22.658Z" transform="translate(-311.154 -210.534) scale(1.19725)"/></g></g><path fill="#023341" d="M1498.59 845.385c-.38.845-.82 1.67-1.31 2.475-2.43 3.939-5.94 7.278-7.86 11.521-.39.863-.9 2.092-.97 3.23-.05.964.19 1.868.88 2.566 1.62 1.632 3.54 1.28 5.32-.074 2.17-1.644 4.1-4.847 4.61-6.134 1.63-4.076 2.23-8.876 1.41-13.336 1.14-2.712 1.74-5.595 1.8-8.599.06-3.319-.71-6.935.57-10.106 1.27-3.151 3.32-4.203 4.9-5.471.97-.781 1.8-1.631 2.33-2.875.52-1.2.75-2.788.49-5.105a1.01 1.01 0 0 0-1.11-.879.995.995 0 0 0-.88 1.108c.2 1.786.08 3.036-.29 3.985-.56 1.411-1.66 2.121-2.83 2.994-1.58 1.187-3.29 2.58-4.47 5.496-1.36 3.396-.64 7.26-.71 10.813a21.61 21.61 0 0 1-.74 5.224 16.95 16.95 0 0 0-2.82-4.9c-2.03-2.44-4.55-3.812-7.28-4.831-2.56-.957-5.29-1.595-7.9-2.615-7.96-3.109-15.22-9.337-16.25-18.371a1.007 1.007 0 0 0-1.11-.881c-.55.063-.94.559-.88 1.107 1.12 9.793 8.88 16.638 17.51 20.008 2.62 1.023 5.36 1.665 7.93 2.625 2.4.899 4.65 2.083 6.44 4.237 1.64 1.967 2.68 4.306 3.22 6.788Zm.44 3.443-.05.082c-2.39 3.868-5.85 7.13-7.74 11.297-.26.576-.61 1.35-.74 2.12-.09.528-.12 1.065.25 1.441.83.829 1.79.43 2.69-.257 1.87-1.416 3.52-4.178 3.96-5.286a23.045 23.045 0 0 0 1.63-9.397Z"/><g transform="matrix(-.53013 -.16375 -.2465 .79804 2833.16 450.501)"><path fill="#f29f05" d="M1733.45 1026.09c-34.11-8.11-100.29 19.31-122.1 24.11-16.21 3.58-3.83 16.93-3.83 16.93 40.26 7.76 104.5 6.84 125.49 0 13.01-4.24 15.73-37.41.44-41.04Z"/><clipPath id="d"><path d="M1733.45 1026.09c-34.11-8.11-100.29 19.31-122.1 24.11-16.21 3.58-3.83 16.93-3.83 16.93 40.26 7.76 104.5 6.84 125.49 0 13.01-4.24 15.73-37.41.44-41.04Z"/></clipPath><g clip-path="url(#d)"><path fill="#b16800" d="M1621.93 1039.15c2.89 11.64 32.07 31.12 95.26 6.48 10.04-3.92 16.12-11.33 22.92-19.76 4.62-5.75 3.91 17.21 2.09 21.98-4.93 12.86-17.5 20.53-29.62 25.63-25.95 10.93-58.51 12.62-85.85 6.58-12.05-2.67-25.72-7.1-34.14-16.69-11.84-13.5-4.2-30.57 8.03-40.65 20.87-17.2-4.96 16.23 21.31 16.43Z" transform="matrix(1.02231 0 0 1 -31.443 4.037)"/></g></g><g transform="matrix(-.5158 -.28941 -.40871 .72842 2940.49 739.787)"><path fill="#f29f05" d="M1733.45 1026.09c-34.11-8.11-100.29 19.31-122.1 24.11-16.21 3.58-3.83 16.93-3.83 16.93 42.14 6.07 104.5 6.84 125.49 0 13.01-4.24 15.73-37.41.44-41.04Z"/><clipPath id="e"><path d="M1733.45 1026.09c-34.11-8.11-100.29 19.31-122.1 24.11-16.21 3.58-3.83 16.93-3.83 16.93 42.14 6.07 104.5 6.84 125.49 0 13.01-4.24 15.73-37.41.44-41.04Z"/></clipPath><g clip-path="url(#e)"><path fill="#b16800" d="M1621.93 1039.15c2.89 11.64 32.07 31.12 95.26 6.48 10.04-3.92 16.12-11.33 22.92-19.76 4.62-5.75 3.91 17.21 2.09 21.98-4.93 12.86-17.5 20.53-29.62 25.63-25.95 10.93-58.51 12.62-85.85 6.58-12.05-2.67-25.72-7.1-34.14-16.69-11.84-13.5-4.2-30.57 8.03-40.65 20.87-17.2-4.96 16.23 21.31 16.43Z" transform="matrix(1.02231 0 0 1 -31.443 4.037)"/></g></g><path fill="#03222f" d="M1715.67 955.7c78.35 2.457 64.35-51.126 47.14-69.66-17.21-18.534-106.48-57.742-150.4-41.544s-113.1 138.732-113.1 138.732c18.81 11.902 48.39 25.482 90.71-.819l69.47-42.732s32.77 15.289 56.18 16.023Z" transform="matrix(-.83525 0 0 .83525 2972.6 174.548)"/><g transform="matrix(-.83525 0 0 .83525 2935.66 174.548)"><path fill="#023341" d="M1715.67 955.7c78.35 2.457 64.35-51.126 47.14-69.66-17.21-18.534-106.48-57.742-150.4-41.544s-113.1 138.732-113.1 138.732c18.81 11.902 48.39 25.482 90.71-.819l69.47-42.732s32.77 15.289 56.18 16.023Z"/><clipPath id="f"><path d="M1715.67 955.7c78.35 2.457 64.35-51.126 47.14-69.66-17.21-18.534-106.48-57.742-150.4-41.544s-113.1 138.732-113.1 138.732c18.81 11.902 48.39 25.482 90.71-.819l69.47-42.732s32.77 15.289 56.18 16.023Z"/></clipPath><g clip-path="url(#f)"><path fill="#03222f" d="M1517.76 879.637c-14.08 9.203-26.74 23.03-33.69 38.393-3.99 8.813-5.07 18.759 6.04 22.356 2.4.775 4.97 1.162 7.47 1.295 6.67.353 13.49-1.247 19.99-2.543 7.28-1.453 14.95-2.65 22.06-4.85 3.59-1.114 6.33-3.345 9.15-5.739.57-.484 2.33-2.54 3.23-2.131 1.34.609 1.45 5.331 1.87 6.566 1.39 4.193 4.38 7.875 7.76 10.639 9.88 8.06 23.13 9.719 33.18 17.233 12.1 9.052 19.5 20.902 32.98 29.214 29.94 18.47 44.28 9.906 48.57 9.93 9.98.07 13.36-5.863 9.43.67-3.94 6.54-12.06 10.33-19.08 12.43-16.84 5.01-36.1 2.28-52.4-3.34-11.6-4-23.08-8.24-35.05-11.085-16.02-3.81-32.45-5.71-48.84-7.042-26-2.113-55.3-.822-79.54-11.824-5.2-2.36-10.09-5.511-14.29-9.386-2.76-2.542-5.24-5.445-7.17-8.665-13.48-22.442 58.08-76.698 88.33-82.121Z" transform="matrix(-1.19725 0 0 1.19725 3514.72 -208.978)"/></g></g><path fill="#4b7686" d="M1665.26 952.558c8.91-8.047-107.25-29.54-120.51-19.723-44.26 32.786-72.81 70.205-90.42 110.835l125.35-2.14c16.35-38.38 51.9-73.607 85.58-88.972Z" transform="matrix(.77264 .18693 -.22975 .94965 438.437 -219.073)"/><path fill="#6993a4" d="M1665.26 952.558c8.91-8.047-107.25-29.54-120.51-19.723-44.26 32.786-72.81 70.205-90.42 110.835h133.11c16.35-38.37 44.14-75.747 77.82-91.112Z" transform="matrix(.83525 0 0 1.0266 92.875 -6.132)"/><path fill="#fff" d="M1477.15 885.812c-24.69 0-44.73 20.043-44.73 44.731 0 24.688 20.04 44.732 44.73 44.732 17.7 0 33.01-10.299 40.26-25.225 2.87-5.896 4.47-12.515 4.47-19.507 0-24.688-20.04-44.731-44.73-44.731Zm0 4.654c22.12 0 40.08 17.958 40.08 40.077s-17.96 40.077-40.08 40.077c-22.12 0-40.07-17.958-40.07-40.077s17.95-40.077 40.07-40.077Z" transform="rotate(-60.659 1521.859 566.907) scale(.71655)"/><path fill="#fff" fill-rule="nonzero" d="M1482.79 930.216c0-2.93-.81-5.261-2.44-6.994-1.62-1.733-4.38-3.332-8.28-4.797-3.89-1.465-7.25-2.92-10.07-4.367-2.83-1.447-5.25-3.109-7.26-4.985a19.936 19.936 0 0 1-4.72-6.618c-1.13-2.537-1.69-5.556-1.69-9.057 0-6.039 1.93-10.987 5.79-14.846 3.86-3.858 8.98-6.109 15.38-6.752v-11.469h8.57v11.63c6.33.893 11.28 3.528 14.85 7.904 3.57 4.377 5.36 10.049 5.36 17.016h-15.49c0-4.287-.88-7.494-2.65-9.62-1.77-2.126-4.14-3.189-7.1-3.189-2.93 0-5.2.831-6.81 2.493-1.61 1.661-2.41 3.956-2.41 6.886 0 2.716.79 4.895 2.36 6.538 1.57 1.644 4.49 3.323 8.76 5.038 4.27 1.715 7.78 3.332 10.53 4.85 2.75 1.519 5.07 3.234 6.97 5.145a19.981 19.981 0 0 1 4.34 6.538c1 2.448 1.5 5.297 1.5 8.548 0 6.074-1.9 11.005-5.68 14.792-3.79 3.787-9.01 6.02-15.65 6.699v10.665h-8.52v-10.611c-7.33-.786-13-3.386-17.02-7.798s-6.03-10.281-6.03-17.605h15.49c0 4.252 1.01 7.512 3.03 9.78 2.02 2.269 4.92 3.404 8.71 3.404 3.14 0 5.63-.831 7.45-2.492 1.82-1.662 2.73-3.904 2.73-6.726Z" transform="rotate(-60.659 1540.95 189.112) scale(.502)"/><path fill="#fff" d="M1634.15 948.081c-.08.481-.27.691-.48 1.051-.42.745-.95 1.893-1.17 5.065-.09 1.194.41 2.594 1.23 3.962 1.1 1.829 3.01 3.968 3.93 4.965-.2.222-.45.487-.72.774-8.03 8.496-47.2 49.842-57.76 100.272-.13.65.28 1.28.93 1.42.65.13 1.28-.28 1.42-.93 10.43-49.86 49.21-90.717 57.15-99.118.74-.783 1.22-1.299 1.41-1.527a1.7 1.7 0 0 0 .26-.42c.08-.188.22-.68-.18-1.267-.42-.608-2.92-2.975-4.38-5.403-.54-.894-.96-1.778-.91-2.557.22-3.047.71-3.78 1.08-4.398.37-.615.66-1.154.62-2.606-.01-.283-.1-.689-.55-1.035-.27-.201-1.02-.522-2.23-.853-8.79-2.418-45.8-8.662-63.04-10.629-4.46-.509-7.64-.714-8.77-.54-3.33.517-4.27 2.021-5.11 3.703-.59 1.177-1.06 2.517-3.1 3.387-.71.305-1.64.405-2.66.449-1.77.078-3.81-.044-5.72.062-2.43.137-4.65.685-6.06 2.151-24.21 25.192-51.96 56.481-73.13 112.241-1.18 3.12-1.56 2.86-2.7 6.14-.22.62.11 1.31.73 1.52a1.2 1.2 0 0 0 1.53-.73c1.13-3.25 1.51-2.99 2.68-6.08 21.01-55.36 48.59-86.42 72.62-111.432.6-.627 1.44-.958 2.38-1.162 1.12-.24 2.37-.292 3.63-.3 2.88-.018 5.8.129 7.64-.657 2.27-.969 3.18-2.318 3.88-3.66.72-1.402 1.05-2.845 3.76-3.265 1.41-.219 6.25.275 12.79 1.124 15.64 2.03 40.78 6.227 52.94 8.8 2.68.569 4.73 1.054 5.87 1.419.06.02.13.042.19.064Z" transform="translate(92.875 174.695) scale(.83525)"/><path fill="#fad8ba" d="M1372.93 969.637a17.863 17.863 0 0 1-.27-3.132c0-8.254 5.56-14.955 12.41-14.955 6.84 0 12.41 6.701 12.41 14.955 0 8.254-5.57 14.955-12.41 14.955-.84 0-1.66-.101-2.45-.292-.34 7.633-2.63 13.548-5.42 13.548-3.01 0-5.45-6.931-5.45-15.468 0-3.631.44-6.971 1.18-9.611Z"/><clipPath id="g"><path d="M1372.93 969.637a17.863 17.863 0 0 1-.27-3.132c0-8.254 5.56-14.955 12.41-14.955 6.84 0 12.41 6.701 12.41 14.955 0 8.254-5.57 14.955-12.41 14.955-.84 0-1.66-.101-2.45-.292-.34 7.633-2.63 13.548-5.42 13.548-3.01 0-5.45-6.931-5.45-15.468 0-3.631.44-6.971 1.18-9.611Z"/></clipPath><g clip-path="url(#g)"><path fill="#d7b699" d="M1370.3 960.007c1.64 2.247 4.29 3.828 6.66 5.178 2.21 1.259 4.38 2.007 6.92 2.218 3.84.317 7.82-.67 10.17-3.931 2.9-4.018 2.91-11.15-.59-14.794-1.67-1.742-4.08-2.592-6.46-2.697-1.95-.086-3.95.262-5.79.901-2.84.988-8.66 11.159-10.91 13.125Z" transform="rotate(16.707 1392.493 965.275)"/></g><g transform="translate(259.89 175.848) scale(.83525)"><path fill="#f25c05" d="M1447.01 767.081s-65.23 23.262-84 49.873c-19.58 27.778-33.52 116.793-33.52 116.793 10.11 9.754 21.42 10.341 34.36-1.61 0 0 28.22-65.678 40.64-81.287 7.48-9.406 33.88-12.365 33.88-12.365l8.64-71.404Z"/><clipPath id="h"><path d="M1447.01 767.081s-65.23 23.262-84 49.873c-19.58 27.778-33.52 116.793-33.52 116.793 10.11 9.754 21.42 10.341 34.36-1.61 0 0 28.22-65.678 40.64-81.287 7.48-9.406 33.88-12.365 33.88-12.365l8.64-71.404Z"/></clipPath><g clip-path="url(#h)"><path fill="#023341" d="M1318.48 920.255c2.71.728 9.1-6.567 11.01-4.454 9.64 10.665 19.98 9.671 28.67 8.5 4.17-.562 9.15-4.327 12.94-6.149 1.22-.589 2.43-1.221 3.58-1.946.13-.084 1.51-1.148 1.6-1.057.42.434-.86 3.975-.98 4.494-.35 1.461-.43 3.493-1.25 4.772-1.99 3.117-1.52-1.194-6.31 2.938-16.96 14.654-39.35 7.679-49.26-7.098Z"/><path fill="#d23f00" d="M1407.45 944.398c-1.46-21.782.92-43.323 15.7-60.512 8.03-9.337 20.34-17.812 32.1-21.75 6.29-2.107 14.27-1.846 12.02 7.167-1.3 5.193-5.68 9.607-8.9 13.629-5.82 7.276-11.77 14.454-17.49 21.813-9.1 11.7-27.16 26.206-33.43 39.653Z" transform="translate(-311.154 -210.534) scale(1.19725)"/></g></g><g transform="translate(259.89 175.848) scale(.83525)"><path fill="#fad8ba" d="m1478.83 745.675-16.63 1.037c1.22 6.507.52 12.515-1.91 18.071 14 23.006 22.93 21.933 23.55-1.994-7.27-4.47-6.44-11.206-5.01-17.114Z"/><clipPath id="i"><path d="m1478.83 745.675-16.63 1.037c1.22 6.507.52 12.515-1.91 18.071 14 23.006 22.93 21.933 23.55-1.994-7.27-4.47-6.44-11.206-5.01-17.114Z"/></clipPath><g clip-path="url(#i)"><path fill="#d7b699" d="M1496.99 807.584c-2.16 1.614-4.67 2.889-7.27 3.621-1.95.548-4.03.967-6.05 1.036-1.87.064-3.9-.142-5.51-1.168-3.3-2.099-3.31-6.805-1.71-9.972 3.37-6.664 12.67-9.341 18.59-4.476 1.83 1.504 1.16 8.741 1.95 10.959Z" transform="rotate(-23.57 1126.885 1606.997) scale(1.19725)"/></g></g><path fill="#fad8ba" d="M1470.8 716.048c9.48 0 17.17 7.695 17.17 17.173 0 9.479-1.24 20.426-10.72 20.426s-23.62-10.947-23.62-20.426c0-9.478 7.69-17.173 17.17-17.173Z" transform="matrix(.71943 0 0 .83525 428.778 178.653)"/><path fill="#03222f" d="M1465.47 733.382c8.38 4.723 25.38 5.62 27.32-6.768.37-2.36.06-4.71-.43-7.028 2.43-.052 4.41-1.795 5.91-3.574 3.55-4.223 5.21-10.953 1.96-15.806-2.88-4.293-8.21-5.871-13.15-5.782-10.04.178-18.69 5.951-24.43 13.898-.97-.673-2.39-.215-3.4.113-3.01.975-5.73 2.855-8.1 4.91-9.15 7.907-13.15 19.706-9.96 31.392-1.52-.578-4.12.764-5.44 1.346-5.18 2.294-9.92 5.711-14.09 9.525-6.11 5.591-11.17 12.722-13.4 20.776-3.26 11.804.51 28.01 11.98 34.204-.26 5.983 9.35 8.294 13.69 8.16 1.28-.04 2.56-.207 3.81-.468 9.06-1.881 16.87-8.402 17.57-18.048.22-3.047-.34-6.035-1.21-8.941 3.14-.609 6.14-3.494 8.07-5.844 6.6-8.04 10.61-16.428 4.84-24.947 1.64-.343 2.91-3.345 3.52-4.618 2.45-5.092-4.03-16.947-5.06-22.5Z" transform="translate(259.89 175.848) scale(.83525)"/></g><g transform="matrix(-6.78406 0 0 6.78406 17189.937 -2797.892)"><path fill="#6993a4" d="M1826.95 1063.05c.53-6.86 2.82-13.69 4.99-20.17 5.79-17.25 14.13-32.74 28.91-43.864 7.18-5.402 16.92-10.461 26.23-9.185 4.41.603 9.33 3.149 9.11 8.246-.38 9.113-11.31 16.233-17.99 20.663-16.32 10.83-46.62 22.56-51.25 44.31Z"/><clipPath id="j"><path d="M1826.95 1063.05c.53-6.86 2.82-13.69 4.99-20.17 5.79-17.25 14.13-32.74 28.91-43.864 7.18-5.402 16.92-10.461 26.23-9.185 4.41.603 9.33 3.149 9.11 8.246-.38 9.113-11.31 16.233-17.99 20.663-16.32 10.83-46.62 22.56-51.25 44.31Z"/></clipPath><g clip-path="url(#j)"><path fill="#477282" d="M1855.6 999.788c1.04 2.592.6 5.662.06 8.312-.48 2.39-1.15 4.82-2.38 6.94-4.46 7.66-13.84 10.88-22.14 12.14-3.75.57-9.76.95-12.7-2.13-2.02-2.12-.56-4.16-.44-6.54.03-.63-.47-.78-1-.62-2.87.84-5.33 4.93-6.87 7.2-4.62 6.85-7.57 15.14-8.79 23.29-.43 2.87-1.07 6.88.78 9.42 2.32 3.19 7.6.75 10.29-.51.78-.37 1.56-.76 2.33-1.16.89-.46 1.78-.94 2.65-1.42 1.37-.75 2.71-1.55 4.04-2.35 8.13-4.86 46.98-25.05 52.1-34.6 5.34-9.97-8.7-14.59-17.93-17.972Z" transform="translate(-337.245 -216.062) scale(1.20146)"/></g></g><g transform="translate(-7564.31 -2797.892) scale(6.78406)"><path fill="#6993a4" d="M1826.95 1063.05c.53-6.86 2.82-13.69 4.99-20.17 5.79-17.25 14.13-32.74 28.91-43.864 7.18-5.402 16.92-10.461 26.23-9.185 4.41.603 9.33 3.149 9.11 8.246-.38 9.113-11.31 16.233-17.99 20.663-16.32 10.83-46.62 22.56-51.25 44.31Z"/><clipPath id="k"><path d="M1826.95 1063.05c.53-6.86 2.82-13.69 4.99-20.17 5.79-17.25 14.13-32.74 28.91-43.864 7.18-5.402 16.92-10.461 26.23-9.185 4.41.603 9.33 3.149 9.11 8.246-.38 9.113-11.31 16.233-17.99 20.663-16.32 10.83-46.62 22.56-51.25 44.31Z"/></clipPath><g clip-path="url(#k)"><path fill="#477282" d="M1855.6 999.788c1.04 2.592.6 5.662.06 8.312-.48 2.39-1.15 4.82-2.38 6.94-4.46 7.66-13.84 10.88-22.14 12.14-3.75.57-9.76.95-12.7-2.13-2.02-2.12-.56-4.16-.44-6.54.03-.63-.47-.78-1-.62-2.87.84-5.33 4.93-6.87 7.2-4.62 6.85-7.57 15.14-8.79 23.29-.43 2.87-1.07 6.88.78 9.42 2.32 3.19 7.6.75 10.29-.51.78-.37 1.56-.76 2.33-1.16.89-.46 1.78-.94 2.65-1.42 1.37-.75 2.71-1.55 4.04-2.35 8.13-4.86 46.98-25.05 52.1-34.6 5.34-9.97-8.7-14.59-17.93-17.972Z" transform="translate(-337.245 -216.062) scale(1.20146)"/></g></g><g transform="matrix(-8.99954 0 0 8.75591 21255.627 -4916.2)"><path fill="#6993a4" d="M1830.61 1062.95c-.26-10.01-.87-20.78.25-31.11 1.07-9.78 3.69-19.17 9.96-26.97 6.79-8.459 16.47-13.765 25.14-19.935 9.65-6.873 18.1-14.74 21.35-27.711.99-3.91 1.36-7.975.98-11.995-.41-4.286-1.79-8.419-3.64-12.283-.89-1.862-3.09-2.627-4.9-1.709-1.81.918-2.56 3.175-1.66 5.036 1.46 3.054 2.59 6.308 2.92 9.696.3 3.143-.01 6.319-.78 9.376-2.78 11.05-10.21 17.553-18.44 23.408-9.21 6.558-19.4 12.339-26.62 21.327-14.03 17.48-12.43 41.85-11.88 63.07.06 2.08 1.74 3.72 3.76 3.66 2.02-.05 3.61-1.78 3.56-3.86Z"/><clipPath id="l"><path d="M1830.61 1062.95c-.26-10.01-.87-20.78.25-31.11 1.07-9.78 3.69-19.17 9.96-26.97 6.79-8.459 16.47-13.765 25.14-19.935 9.65-6.873 18.1-14.74 21.35-27.711.99-3.91 1.36-7.975.98-11.995-.41-4.286-1.79-8.419-3.64-12.283-.89-1.862-3.09-2.627-4.9-1.709-1.81.918-2.56 3.175-1.66 5.036 1.46 3.054 2.59 6.308 2.92 9.696.3 3.143-.01 6.319-.78 9.376-2.78 11.05-10.21 17.553-18.44 23.408-9.21 6.558-19.4 12.339-26.62 21.327-14.03 17.48-12.43 41.85-11.88 63.07.06 2.08 1.74 3.72 3.76 3.66 2.02-.05 3.61-1.78 3.56-3.86Z"/></clipPath><g clip-path="url(#l)"><path fill="#477282" d="M1847.02 924.905c5.25 5.935 2.64 36.785 5.98 43.864.79 1.693 1.42 7.919 3.45 8.598 1.57.522 3.33-1.597 4.19-2.574 3.06-3.452 5.16-7.904 7.03-12.068 4.85-10.735 8.71-23.987 7.13-35.85-.26-2.003-.72-4.053-1.52-5.914-3.52-8.121-12.71-5.808-18.62-2.034-2.73 1.749-5.23 3.807-7.64 5.978Z" transform="matrix(.89406 -.14872 .1447 .91894 83.332 350.673)"/></g></g><g transform="matrix(-10.78595 0 0 10.78595 24595.05 -6813.39)"><circle cx="1873.49" cy="922.267" r="28.654" fill="#f29f05"/><clipPath id="m"><circle cx="1873.49" cy="922.267" r="28.654"/></clipPath><g clip-path="url(#m)"><path fill="#d98a00" d="M1078.06 1036.13c3.78 18.66 2.57 41.21-14.47 53.1a42.774 42.774 0 0 1-10.56 5.33c-9.42 3.22-20.72 3.17-29.76-1.21-2.66-1.28-5.19-2.91-7.34-4.94-1.35-1.27-2.69-3.39-4.37-4.22-1.67-.83-2.13 1.29-2.03 2.49.36 4.52 3.42 9 6.17 12.4 10.58 13.09 28.05 16.93 43.83 11.83 27.21-8.79 41.45-49.94 18.53-74.78Z" transform="translate(1082.17 116.823) scale(.75569)"/></g></g><path fill="#f29f05" d="m1886.04 843.909 1.66 10.676 10.68 1.659-10.68 1.658-1.66 10.676-1.66-10.676-10.67-1.658 10.67-1.659 1.66-10.676Z" transform="scale(-11.42413 11.42413) rotate(21.267 2362.024 -5633.184)"/><path fill="#f29f05" d="m1886.04 843.909 1.66 10.676 10.68 1.659-10.68 1.658-1.66 10.676-1.66-10.676-10.67-1.658 10.67-1.659 1.66-10.676Z" transform="scale(-6.70691 6.70691) rotate(21.267 1754.827 -6252.421)"/><path fill="#f29f05" d="m1886.04 843.909 1.66 10.676 10.68 1.659-10.68 1.658-1.66 10.676-1.66-10.676-10.67-1.658 10.67-1.659 1.66-10.676Z" transform="scale(-6.70691 6.70691) rotate(21.267 1674.44 -6300.711)"/><path fill="#fff" fill-rule="nonzero" d="M1754.55 918.17c0-2.929-.81-5.261-2.44-6.993-1.62-1.733-4.38-3.332-8.28-4.797-3.89-1.465-7.25-2.921-10.07-4.368-2.83-1.447-5.25-3.108-7.27-4.984a20.055 20.055 0 0 1-4.71-6.619c-1.13-2.536-1.69-5.555-1.69-9.057 0-6.038 1.93-10.986 5.79-14.845 3.86-3.859 8.98-6.109 15.38-6.753v-11.468h8.57v11.629c6.33.893 11.28 3.528 14.85 7.905 3.57 4.377 5.36 10.049 5.36 17.016h-15.49c0-4.288-.89-7.494-2.65-9.62-1.77-2.126-4.14-3.189-7.1-3.189-2.93 0-5.2.831-6.81 2.492-1.61 1.662-2.41 3.957-2.41 6.887 0 2.715.78 4.895 2.36 6.538 1.57 1.644 4.49 3.323 8.76 5.038 4.27 1.715 7.78 3.332 10.53 4.85 2.75 1.518 5.07 3.233 6.97 5.145a19.971 19.971 0 0 1 4.34 6.538c1 2.448 1.5 5.297 1.5 8.548 0 6.074-1.9 11.005-5.68 14.792-3.79 3.787-9.01 6.02-15.65 6.699v10.665h-8.52v-10.612c-7.33-.786-13-3.385-17.02-7.797-4.02-4.413-6.03-10.281-6.03-17.605h15.49c0 4.251 1.01 7.511 3.03 9.78 2.02 2.269 4.92 3.403 8.71 3.403 3.14 0 5.62-.83 7.45-2.492 1.82-1.661 2.73-3.903 2.73-6.726Z" transform="rotate(-30 4897.186 7820.204) scale(3.89355)"/><g transform="rotate(-134.849 11426.71 157.316) scale(7.30473 -7.10699)"><path fill="#6993a4" d="M1821.75 1026.45c-.58 9.11 6.49 6.14 7.62-4.19 1.06-9.78 5.18-9.59 11.45-17.39 6.79-8.459 16.47-13.765 25.14-19.935 9.65-6.873 18.1-14.74 21.35-27.711.99-3.91 1.36-7.975.98-11.995-.41-4.286-1.79-8.419-3.64-12.283-.89-1.862-3.09-2.627-4.9-1.709-1.81.918-2.56 3.175-1.66 5.036 1.46 3.054 2.59 6.308 2.92 9.696.3 3.143-.01 6.319-.78 9.376-2.78 11.05-10.21 17.553-18.44 23.408-9.21 6.558-19.4 12.339-26.62 21.327-8.25 10.28-12.59 13.37-13.42 26.37Z"/><clipPath id="n"><path d="M1821.75 1026.45c-.58 9.11 6.49 6.14 7.62-4.19 1.06-9.78 5.18-9.59 11.45-17.39 6.79-8.459 16.47-13.765 25.14-19.935 9.65-6.873 18.1-14.74 21.35-27.711.99-3.91 1.36-7.975.98-11.995-.41-4.286-1.79-8.419-3.64-12.283-.89-1.862-3.09-2.627-4.9-1.709-1.81.918-2.56 3.175-1.66 5.036 1.46 3.054 2.59 6.308 2.92 9.696.3 3.143-.01 6.319-.78 9.376-2.78 11.05-10.21 17.553-18.44 23.408-9.21 6.558-19.4 12.339-26.62 21.327-8.25 10.28-12.59 13.37-13.42 26.37Z"/></clipPath><g clip-path="url(#n)"><path fill="#477282" d="M1847.02 924.905c5.25 5.935 2.64 36.785 5.98 43.864.79 1.693 1.42 7.919 3.45 8.598 1.57.522 3.33-1.597 4.19-2.574 3.06-3.452 5.16-7.904 7.03-12.068 4.85-10.735 8.71-23.987 7.13-35.85-.26-2.003-.72-4.053-1.52-5.914-3.52-8.121-12.71-5.808-18.62-2.034-2.73 1.749-5.23 3.807-7.64 5.978Z" transform="matrix(.89406 -.14872 .1447 .91894 83.332 350.673)"/></g></g><g transform="scale(-8.75473 8.75473) rotate(-45.151 -13.51 3599.624)"><circle cx="1873.49" cy="922.267" r="28.654" fill="#f29f05"/><clipPath id="o"><circle cx="1873.49" cy="922.267" r="28.654"/></clipPath><g clip-path="url(#o)"><path fill="#d98a00" d="M1078.06 1036.13c3.78 18.66 2.57 41.21-14.47 53.1a42.774 42.774 0 0 1-10.56 5.33c-9.42 3.22-20.72 3.17-29.76-1.21-2.66-1.28-5.19-2.91-7.34-4.94-1.35-1.27-2.69-3.39-4.37-4.22-1.67-.83-2.13 1.29-2.03 2.49.36 4.52 3.42 9 6.17 12.4 10.58 13.09 28.05 16.93 43.83 11.83 27.21-8.79 41.45-49.94 18.53-74.78Z" transform="translate(1082.17 116.823) scale(.75569)"/></g></g><path fill="#fff" fill-rule="nonzero" d="M1754.55 918.17c0-2.929-.81-5.261-2.44-6.993-1.62-1.733-4.38-3.332-8.28-4.797-3.89-1.465-7.25-2.921-10.07-4.368-2.83-1.447-5.25-3.108-7.27-4.984a20.055 20.055 0 0 1-4.71-6.619c-1.13-2.536-1.69-5.555-1.69-9.057 0-6.038 1.93-10.986 5.79-14.845 3.86-3.859 8.98-6.109 15.38-6.753v-11.468h8.57v11.629c6.33.893 11.28 3.528 14.85 7.905 3.57 4.377 5.36 10.049 5.36 17.016h-15.49c0-4.288-.89-7.494-2.65-9.62-1.77-2.126-4.14-3.189-7.1-3.189-2.93 0-5.2.831-6.81 2.492-1.61 1.662-2.41 3.957-2.41 6.887 0 2.715.78 4.895 2.36 6.538 1.57 1.644 4.49 3.323 8.76 5.038 4.27 1.715 7.78 3.332 10.53 4.85 2.75 1.518 5.07 3.233 6.97 5.145a19.971 19.971 0 0 1 4.34 6.538c1 2.448 1.5 5.297 1.5 8.548 0 6.074-1.9 11.005-5.68 14.792-3.79 3.787-9.01 6.02-15.65 6.699v10.665h-8.52v-10.612c-7.33-.786-13-3.385-17.02-7.797-4.02-4.413-6.03-10.281-6.03-17.605h15.49c0 4.251 1.01 7.511 3.03 9.78 2.02 2.269 4.92 3.403 8.71 3.403 3.14 0 5.62-.83 7.45-2.492 1.82-1.661 2.73-3.903 2.73-6.726Z" transform="rotate(15.151 3707.083 1430.475) scale(3.16031)"/><path fill="#03222f" d="M1358.95 1066.85h457.854v8.317H1358.95z" transform="matrix(-8.13672 0 0 2.94148 15610.593 1258.226)"/><path fill="#03222f" d="M1358.95 1066.85h457.854v8.317H1358.95z" transform="matrix(-.8718 0 0 3.12605 6261.452 1064.385)"/></svg>